<?xml version="1.0" standalone="no"?>
<svg viewBox="0 0 200 200" xmlns="http://www.w3.org/2000/svg">
  <path fill="#F2F4F8" d="M35.3,-56.1C48.1,-46.7,62.5,-40.9,68.5,-30.5C74.4,-20.1,71.9,-5.1,69.6,10C67.4,25,65.5,40.1,56.9,48.3C48.2,56.5,32.8,57.8,18,62.8C3.2,67.9,-10.9,76.6,-18.3,70.7C-25.8,64.8,-26.4,44.1,-34.1,31.6C-41.8,19.1,-56.5,14.7,-66,4.3C-75.5,-6,-79.7,-22.2,-73.7,-32.9C-67.6,-43.6,-51.2,-48.9,-37.2,-57.8C-23.2,-66.7,-11.6,-79.1,-0.2,-78.8C11.2,-78.5,22.5,-65.5,35.3,-56.1Z" transform="translate(100 100)" />
</svg>
