<?xml version="1.0" standalone="no"?>
<svg viewBox="0 0 200 200" xmlns="http://www.w3.org/2000/svg">
  <path fill="#9BCDD2" d="M32.1,-47.4C45.7,-41.2,63.6,-39.2,74.7,-29.8C85.7,-20.3,89.9,-3.4,88.1,13C86.3,29.4,78.4,45.3,64.6,49.4C50.8,53.5,31,46,15.6,48.4C0.1,50.9,-11.1,63.4,-22.4,65.2C-33.8,67,-45.3,58.1,-55.9,47.5C-66.5,37,-76.2,24.7,-75.2,12.6C-74.1,0.5,-62.4,-11.3,-56.9,-27.1C-51.4,-43,-52.3,-62.8,-43.9,-71.4C-35.4,-80,-17.7,-77.2,-4.2,-70.6C9.2,-64,18.5,-53.6,32.1,-47.4Z" transform="translate(100 100)" />
</svg>
